<?xml version="1.0" encoding="UTF-8" standalone="no"?>
<svg
   width="512"
   height="512"
   fill="currentColor"
   class="bi bi-tv"
   viewBox="0 0 512 512"
   version="1.1"
   id="svg1"
   sodipodi:docname="logo.svg"
   inkscape:version="1.3.2 (091e20e, 2023-11-25)"
   inkscape:export-filename="logo.png"
   inkscape:export-xdpi="192"
   inkscape:export-ydpi="192"
   xmlns:inkscape="http://www.inkscape.org/namespaces/inkscape"
   xmlns:sodipodi="http://sodipodi.sourceforge.net/DTD/sodipodi-0.dtd"
   xmlns="http://www.w3.org/2000/svg"
   xmlns:svg="http://www.w3.org/2000/svg">
  <defs
     id="defs1" />
  <sodipodi:namedview
     id="namedview1"
     pagecolor="#ffffff"
     bordercolor="#000000"
     borderopacity="0.25"
     inkscape:showpageshadow="2"
     inkscape:pageopacity="0.0"
     inkscape:pagecheckerboard="0"
     inkscape:deskcolor="#d1d1d1"
     inkscape:zoom="1.2164629"
     inkscape:cx="209.62415"
     inkscape:cy="242.50637"
     inkscape:window-width="1728"
     inkscape:window-height="1387"
     inkscape:window-x="0"
     inkscape:window-y="25"
     inkscape:window-maximized="0"
     inkscape:current-layer="svg1" />
  <circle
     style="fill:#336b87;fill-opacity:1;stroke:none;stroke-width:51.2"
     id="path2"
     cx="256"
     cy="256"
     r="256" />
  <path
     d="m 146,366 a 10.000001,10.000001 0 0 1 10,-10 h 200.00004 a 10.000002,10.000002 0 0 1 0,20 H 156 a 10.000001,10.000001 0 0 1 -10,-10 m 229.82,-210 0.47973,0.02 a 30.000001,30.000001 0 0 1 10.76,2.85996 15.200001,15.200001 0 0 1 6.04,5.08 c 1.33974,2 2.90003,5.54 2.90003,12.04 v 119.82 l -0.02,0.48 a 30.000001,30.000001 0 0 1 -2.86008,10.76001 15.200001,15.200001 0 0 1 -5.08,6.03999 c -2,1.34001 -5.54001,2.90004 -12.04,2.90004 H 136.18 l -0.48,-0.02 a 30.000001,30.000001 0 0 1 -10.76,-2.86002 15.200001,15.200001 0 0 1 -6.04,-5.08 c -1.34,-2 -2.9,-5.54001 -2.9,-12.04001 V 176.18 l 0.02,-0.48 a 30.000001,30.000001 0 0 1 2.86,-10.76 15.200001,15.200001 0 0 1 5.08,-6.04 c 1.99997,-1.34 5.54,-2.90004 12.04001,-2.90004 z m 0.18132,-20 H 136.00001 C 96,136 96,176 96,176 v 120 c 0,40 40.00001,40 40.00001,40 H 376 c 40,0 40,-40 40,-40 V 176 c 0,-40 -40,-40 -40,-40"
     id="path1"
     style="fill:#ffffff;stroke-width:20" />
</svg>
