<?xml version="1.0" encoding="UTF-8" standalone="no"?>
<svg
   width="1920"
   height="1080"
   version="1.1"
   id="svg16"
   sodipodi:docname="testbild.svg"
   inkscape:version="1.3.2 (091e20e, 2023-11-25)"
   inkscape:export-filename="testbild.png"
   inkscape:export-xdpi="96"
   inkscape:export-ydpi="96"
   xmlns:inkscape="http://www.inkscape.org/namespaces/inkscape"
   xmlns:sodipodi="http://sodipodi.sourceforge.net/DTD/sodipodi-0.dtd"
   xmlns="http://www.w3.org/2000/svg"
   xmlns:svg="http://www.w3.org/2000/svg">
  <defs
     id="defs16" />
  <sodipodi:namedview
     id="namedview16"
     pagecolor="#ffffff"
     bordercolor="#000000"
     borderopacity="0.25"
     inkscape:showpageshadow="2"
     inkscape:pageopacity="0.0"
     inkscape:pagecheckerboard="0"
     inkscape:deskcolor="#d1d1d1"
     inkscape:zoom="0.43852551"
     inkscape:cx="921.2691"
     inkscape:cy="497.12046"
     inkscape:window-width="1472"
     inkscape:window-height="891"
     inkscape:window-x="0"
     inkscape:window-y="37"
     inkscape:window-maximized="0"
     inkscape:current-layer="g16" />
  <g
     id="g16"
     transform="scale(2.8571429,2.1428571)">
    <path
       fill="#131313"
       d="M 0,0 H 672 V 504 H 0 Z"
       id="path1" />
    <path
       fill="#c0c0c0"
       d="M 0,0 H 96 V 336 H 0 Z"
       id="path2"
       style="fill:#ffffff" />
    <path
       fill="#c0c000"
       d="m 96,0 v 336 h 96 V 0 Z"
       id="path3"
       style="fill:#ffff00" />
    <path
       fill="#00c0c0"
       d="m 192,0 v 336 h 96 V 0 Z"
       id="path4"
       style="fill:#00ffff" />
    <path
       fill="#00c000"
       d="m 288,0 v 336 h 96 V 0 Z"
       id="path5"
       style="fill:#00ff00" />
    <path
       fill="#c000c0"
       d="m 384,0 v 336 h 96 V 0 Z"
       id="path6"
       style="fill:#ff00ff" />
    <path
       fill="#c00000"
       d="m 480,0 v 336 h 96 V 0 Z"
       id="path7"
       style="fill:#ff0000" />
    <path
       fill="#0000c0"
       d="m 576,0 v 336 h 96 V 0 Z M 0,336 h 96 v 42 H 0 Z"
       id="path8"
       style="fill:#0000ff" />
    <path
       fill="#c000c0"
       d="m 192,336 h 96 v 42 h -96 z"
       id="path9" />
    <path
       fill="#00c0c0"
       d="m 384,336 h 96 v 42 h -96 z"
       id="path10" />
    <path
       fill="#c0c0c0"
       d="m 576,336 h 96 v 42 h -96 z"
       id="path11"
       style="fill:#ffffff" />
    <path
       fill="#00214c"
       d="M 0,378 H 120 V 504 H 0 Z"
       id="path12" />
    <path
       fill="#ffffff"
       d="M 120,378 H 240 V 504 H 120 Z"
       id="path13"
       style="fill:#ffffff" />
    <path
       fill="#32006a"
       d="M 240,378 H 360 V 504 H 240 Z"
       id="path14" />
    <path
       fill="#090909"
       d="m 480,378 h 32 v 126 h -32 z"
       id="path15" />
    <path
       fill="#1d1d1d"
       d="m 544,378 h 32 v 126 h -32 z"
       id="path16" />
  </g>
</svg>
